Simulation
nRows=20
nColumns=15
endheader
time  TH_x TH_y TH_z SC_y  SC_z  SC_x  AC_y  AC_z  AC_x  GH_y  GH_z  GH_yy  EL_x  PS_y
0.595  0.000000  0.000000  0.000000  -38.60150483884547  4.531942030784688  5.231035758988126  55.9993491171579  7.2879971037058935  -5.453217544313806  -4.157576878132351  35.82043236309105  7.765885414755255  24.361923705031636  0.000000
0.6069  0.000000  0.000000  0.000000  -38.73558463774292  4.593601098702175  5.397497222593461  56.06578773034  7.49394293908727  -5.441635576326781  -3.744329339883057  36.585504909160846  7.107753924096283  24.2184828967897  0.000000
0.6187999999999999  0.000000  0.000000  0.000000  -38.8736305367131  4.660072376902522  5.565363962284008  56.136046812241354  7.704574412236783  -5.420859616336544  -3.327491700890364  37.32534472702113  6.4742288591512125  24.068749770642356  0.000000
0.6306999999999999  0.000000  0.000000  0.000000  -39.013703422300416  4.731627513446618  5.732872240097788  56.208411374422134  7.919160032848661  -5.392176166340411  -2.9072742402041816  38.0417115260835  5.864664644384675  23.913569713727263  0.000000
0.6426  0.000000  0.000000  0.000000  -39.15707020457686  4.807715753665717  5.900929442993001  56.28440504813346  8.139550179393604  -5.354063928430065  -2.487584061445599  38.73259946723134  5.2834955384285545  23.753930886341497  0.000000
0.6545  0.000000  0.000000  0.000000  -39.303372226802956  4.888507821274337  6.0675112931357935  56.36324870310801  8.364843220795144  -5.307134792492889  -2.0680801185506454  39.40101986842137  4.728619987838289  23.590567474802064  0.000000
0.6664  0.000000  0.000000  0.000000  -39.45384696488786  4.973710049843572  6.232687130204301  56.44582546099084  8.598192285347645  -5.248788951746016  -1.652447379432924  40.044442646514824  4.205037505631163  23.42474458387677  0.000000
0.6782999999999999  0.000000  0.000000  0.000000  -39.60745106044123  5.063306617438334  6.393460337967893  56.53131353104779  8.839504984425371  -5.180164482637697  -1.2403572712180844  40.666130728533474  3.709432071571344  23.257212764439476  0.000000
0.6901999999999999  0.000000  0.000000  0.000000  -39.76480302684201  5.15726681839545  6.549295041259681  56.619670636303034  9.09276423001795  -5.097530707901092  -0.8357834314204995  41.262999547510006  3.247350662174755  23.089177862014722  0.000000
0.7021  0.000000  0.000000  0.000000  -39.92484021014429  5.254992525570814  6.695637761987071  56.71065772011349  9.359177989767218  -5.002543655133101  -0.43829142880053573  41.83902425405936  2.8139234677894582  22.921600822802088  0.000000
0.714  0.000000  0.000000  0.000000  -40.08854178208497  5.356065998826874  6.837002308227603  56.803818763142544  9.639219607474294  -4.893039531254205  -0.05185027108061268  42.39125975726871  2.4153058713075115  22.756771454729872  0.000000
0.7259  0.000000  0.000000  0.000000  -40.254381500387  5.461908826375399  6.973371195515694  56.89942066665831  9.930066530022252  -4.773062042510056  0.3253775023341598  42.923918448894376  2.045829159480314  22.594847754242718  0.000000
0.7377999999999999  0.000000  0.000000  0.000000  -40.42400578368587  5.574377358252077  7.104861912670506  56.997406166401696  10.235840638053896  -4.6353885002418025  0.689522502180965  43.43357297138014  1.7107507090205518  22.43778498477226  0.000000
0.7496999999999999  0.000000  0.000000  0.000000  -40.59793993726252  5.695195596297772  7.225929503920948  57.09659250194662  10.55853747434564  -4.479783115916422  1.0446001150252942  43.92536378936346  1.4053193971198095  22.285560535103354  0.000000
0.7615999999999999  0.000000  0.000000  0.000000  -40.77679938153577  5.828248655026888  7.33479265926672  57.196993167862  10.902988555221896  -4.297568694967503  1.3846835101516208  44.39338543042446  1.133116963597879  22.13947739162425  0.000000
0.7735  0.000000  0.000000  0.000000  -40.96092108675932  5.976151633443696  7.421178448468395  57.29341716671812  11.272059362237934  -4.085020893649618  1.7135596429941802  44.842681118236506  0.8909055107014007  22.00005995307799  0.000000
0.7854  0.000000  0.000000  0.000000  -41.15331598400196  6.146613054463019  7.481999309490702  57.38653535827131  11.667234322160052  -3.828143076201451  2.02336961732534  45.26536960160406  0.6800497845233665  21.86794049121989  0.000000
0.7972999999999999  0.000000  0.000000  0.000000  -41.35097703531808  6.34483977392091  7.507609177980975  57.472770038036806  12.084016996466278  -3.524324038793029  2.3129517823300234  45.669677728928924  0.4939638702418977  21.739353828620416  0.000000
0.8091999999999999  0.000000  0.000000  0.000000  -41.54647682283504  6.570315099053484  7.515030713643726  57.548851573160604  12.509645088248309  -3.180690572261419  2.5672831153713593  46.05324396998159  0.339816636176194  21.61371993341476  0.000000
0.8210999999999999  0.000000  0.000000  0.000000  -41.72678948899477  6.81184466774793  7.535280273190587  57.611523953507564  12.912469139612808  -2.8400930246511047  2.7796688231480786  46.43483432891098  0.2061096152591494  21.490156627787876  0.000000
